<svg xmlns="http://www.w3.org/2000/svg" width="22" height="12" viewBox="0 0 22 12" fill="none"><path d="M19.6686 4.06273C21.9451 1.01074 21.4402 0.953562 22 0H17.6375C17.6375 0 17.3275 1.06592 17.2328 1.25673C16.3949 2.94429 14.5155 5.47637 13.3789 5.73516C12.2597 5.99014 12.4082 3.37096 12.4772 2.23639C12.5422 1.18476 12.5311 0.816769 12.4999 0.635098C12.4542 0.369657 12.2293 0.176019 11.9594 0.142278C11.403 0.0724687 10.3934 -0.0262616 9.26279 0.0255967L8.25134 0.0588392C8.65015 0.942259 8.91954 0.671499 9.06641 1.69354C9.23224 2.8901 9.16695 5.80165 7.97691 5.80165C6.06917 5.80165 3.92778 0.127817 3.85963 0H0L0.353149 0.875109C3.19933 7.93083 6.75902 11.1987 11.6294 11.4705L12.2632 11.4886L12.3085 10.8791C12.377 9.93785 12.8539 8.58288 13.6996 8.58288C14.9493 8.58288 15.3103 8.94323 16.1344 9.95165C16.9268 10.9185 17.4728 11.4886 18.7515 11.4886H22L21.5367 10.5661C20.8133 9.1279 19.3623 7.89493 18.7956 7.17972C18.5904 6.91045 18.3883 6.48478 18.5974 5.96986C18.7684 5.52142 19.2777 4.58614 19.6686 4.06273Z" fill="white"/></svg>