<svg xmlns="http://www.w3.org/2000/svg" width="36" height="36" viewBox="0 0 36 36" fill="none"><path d="M35.5 17.8248C35.5 27.3884 27.6696 35.1495 18 35.1495C8.33039 35.1495 0.5 27.3884 0.5 17.8248C0.5 8.26116 8.33039 0.5 18 0.5C27.6696 0.5 35.5 8.26116 35.5 17.8248Z" stroke="#A0B3C6"/><path d="M15.987 15L15 15.5092C15.2366 16.2005 15.535 16.7853 15.8283 17.2588L16.6059 16.1848L15.987 15Z" fill="#A0B3C6"/><path d="M19 19.7563C19.5003 20.0748 20.0813 20.3806 20.7204 20.605L21.2293 19.619L20.0444 19L19 19.7563Z" fill="#A0B3C6"/><path d="M18.2829 10C14.0051 10 10.5247 13.4804 10.5247 17.7581C10.5247 19.067 10.8572 20.3571 11.4875 21.5001L10.0264 25.0351C9.97563 25.1579 9.99924 25.2987 10.0872 25.3981C10.1541 25.474 10.2496 25.5158 10.3481 25.5158C10.3787 25.5158 10.4096 25.5118 10.4399 25.5034L14.3359 24.4365C15.5289 25.143 16.8901 25.5157 18.2827 25.5157C22.5605 25.5157 26.0409 22.0356 26.0409 17.7576C26.041 13.4798 22.5605 10.0002 18.2827 10.0002L18.2829 10ZM21.7247 19.8765L20.9212 21.4335C20.8601 21.5515 20.7394 21.6219 20.6121 21.6219C20.5783 21.6219 20.5442 21.6171 20.5105 21.6068C18.1482 20.8857 16.5023 19.1315 16.3234 18.935C16.157 18.7871 14.7697 17.5025 14.0509 15.1475C14.0018 14.9867 14.0747 14.8138 14.2243 14.7368L15.7814 13.9334C15.9513 13.8454 16.1607 13.9116 16.2493 14.0814L17.1282 15.7637C17.1894 15.8807 17.179 16.0221 17.1018 16.129L16.0508 17.5803C16.4635 18.1308 16.7897 18.4185 16.7962 18.4244C16.8018 18.4291 16.8059 18.435 16.8108 18.44C16.8164 18.4454 16.8228 18.4497 16.8281 18.4556C16.8368 18.4654 17.3143 18.993 18.1101 19.5836L19.5287 18.5561C19.6355 18.4788 19.7769 18.4687 19.8939 18.5296L21.5765 19.4086C21.7461 19.4972 21.8121 19.7064 21.7245 19.8765L21.7247 19.8765Z" fill="#A0B3C6"/></svg>